<svg width="251" height="96" viewBox="0 0 251 96" fill="none" xmlns="http://www.w3.org/2000/svg">
<path fill-rule="evenodd" clip-rule="evenodd" d="M37.71 51.1589V92.9247H46.125V86.1626H62.7925L67.3626 92.9247H77.3804C68.2976 79.5331 49.8115 52.4318 48.5292 51.1589H37.71ZM46.125 79.4005V61.5009L58.2224 79.4005H46.125Z" fill="black"/>
<path d="M106.8 1.00036V42.7662L114.869 42.7662V23.7258H132.041V42.7661L140.109 42.7661V1.00032L132.041 1.00034V16.3554H114.869V1.00035L106.8 1.00036Z" fill="black"/>
<path d="M1 51.1589V92.9247L9.06882 92.9246V73.8843H26.2409V92.9246L34.3098 92.9246V51.1588L26.2409 51.1589V66.5139H9.06882V51.1589L1 51.1589Z" fill="black"/>
<path d="M145.411 51.1585V92.9243L153.48 92.9243V73.884H170.652V92.9243L178.721 92.9243V51.1585H170.652V66.5136H153.48V51.1585L145.411 51.1585Z" fill="black"/>
<path d="M52.5232 51.1589H59.9206H65.249H102.998C102.998 54.197 102.998 55.9003 102.998 58.9384H90.3777V92.9247H85.5157H80.6537V58.9384H57.8086L52.5232 51.1589Z" fill="black"/>
<path d="M143.627 42.7661V1.00027H174.454V8.77988H152.109V16.9687H172.592V24.1344H152.109V34.7806H175.281V42.7661H143.627Z" fill="black"/>
<path d="M182.238 92.9243V51.1585H213.065V58.9374H190.721V67.127H211.203V74.2927H190.721V84.9388H213.893V92.9243H182.238Z" fill="black"/>
<path d="M132.584 78.7971H141.894C141.894 84.325 136.473 94.7664 123.894 94.7664C108.17 94.7664 104.24 81.0492 104.033 77.1593C103.619 73.6788 103.619 69.7888 104.033 67.332C104.412 62.8279 106.929 52.3864 117.274 50.5438C125.549 49.0697 130.101 49.9296 132.791 51.158C135.48 52.3864 141.398 57.1772 141.894 64.8752H132.377C131.894 62.2819 129.48 57.1522 123.067 57.5048C115.826 57.9029 113.757 64.261 113.55 66.9226C113.384 69.0518 113.136 72.4504 113.55 76.7498C113.785 79.1955 116.032 84.4763 119.343 85.7581C122.239 86.8797 127.205 86.577 129.274 84.9392C130.308 84.1202 132.418 81.7453 132.584 78.7971Z" fill="black"/>
<path d="M250.281 58.9374L238.72 58.9375V92.9238H233.858H228.996V58.9375H216.376V51.158H250.281V58.9374Z" fill="black"/>
<path d="M67.7812 8.77952H81.0551V42.7658H85.917H90.779V8.77952H103.399V1H67.7812V8.77952Z" fill="black"/>
<path fill-rule="evenodd" clip-rule="evenodd" d="M37.71 51.1589V92.9247H46.125V86.1626H62.7925L67.3626 92.9247H77.3804C68.2976 79.5331 49.8115 52.4318 48.5292 51.1589H37.71ZM46.125 79.4005V61.5009L58.2224 79.4005H46.125Z" stroke="black"/>
<path d="M106.8 1.00036V42.7662L114.869 42.7662V23.7258H132.041V42.7661L140.109 42.7661V1.00032L132.041 1.00034V16.3554H114.869V1.00035L106.8 1.00036Z" stroke="black"/>
<path d="M1 51.1589V92.9247L9.06882 92.9246V73.8843H26.2409V92.9246L34.3098 92.9246V51.1588L26.2409 51.1589V66.5139H9.06882V51.1589L1 51.1589Z" stroke="black"/>
<path d="M145.411 51.1585V92.9243L153.48 92.9243V73.884H170.652V92.9243L178.721 92.9243V51.1585H170.652V66.5136H153.48V51.1585L145.411 51.1585Z" stroke="black"/>
<path d="M52.5232 51.1589H59.9206H65.249H102.998C102.998 54.197 102.998 55.9003 102.998 58.9384H90.3777V92.9247H85.5157H80.6537V58.9384H57.8086L52.5232 51.1589Z" stroke="black"/>
<path d="M143.627 42.7661V1.00027H174.454V8.77988H152.109V16.9687H172.592V24.1344H152.109V34.7806H175.281V42.7661H143.627Z" stroke="black"/>
<path d="M182.238 92.9243V51.1585H213.065V58.9374H190.721V67.127H211.203V74.2927H190.721V84.9388H213.893V92.9243H182.238Z" stroke="black"/>
<path d="M132.584 78.7971H141.894C141.894 84.325 136.473 94.7664 123.894 94.7664C108.17 94.7664 104.24 81.0492 104.033 77.1593C103.619 73.6788 103.619 69.7888 104.033 67.332C104.412 62.8279 106.929 52.3864 117.274 50.5438C125.549 49.0697 130.101 49.9296 132.791 51.158C135.48 52.3864 141.398 57.1772 141.894 64.8752H132.377C131.894 62.2819 129.48 57.1522 123.067 57.5048C115.826 57.9029 113.757 64.261 113.55 66.9226C113.384 69.0518 113.136 72.4504 113.55 76.7498C113.785 79.1955 116.032 84.4763 119.343 85.7581C122.239 86.8797 127.205 86.577 129.274 84.9392C130.308 84.1202 132.418 81.7453 132.584 78.7971Z" stroke="black"/>
<path d="M250.281 58.9374L238.72 58.9375V92.9238H233.858H228.996V58.9375H216.376V51.158H250.281V58.9374Z" stroke="black"/>
<path d="M67.7812 8.77952H81.0551V42.7658H85.917H90.779V8.77952H103.399V1H67.7812V8.77952Z" stroke="black"/>
</svg>
