<svg width="969" height="112" viewBox="0 0 969 112" fill="none" xmlns="http://www.w3.org/2000/svg">
<path d="M967.684 4.39849H954.807H941.93H850.701V23.3975H881.201V106.398H892.951H904.701V23.3975H954.911L967.684 4.39849Z" fill="black"/>
<path fill-rule="evenodd" clip-rule="evenodd" d="M418.918 4.40071V106.401H439.255V89.8864H479.535L490.58 106.401H514.79C492.84 73.6959 448.164 7.50928 445.065 4.40071H418.918ZM439.255 73.3721V29.6578L468.491 73.3721H439.255Z" fill="black"/>
<path d="M126.201 4.40071V106.401L145.701 106.401V59.9006H187.201V106.401L206.701 106.401V4.40061L187.201 4.40064V41.9006H145.701V4.40067L126.201 4.40071Z" fill="black"/>
<path d="M330.201 4.40058V106.401L349.701 106.401V59.9005H391.201V106.4L410.701 106.4V4.40049L391.201 4.40052V41.9005H349.701V4.40055L330.201 4.40058Z" fill="black"/>
<path d="M679.201 4.39976V106.4L698.701 106.4V59.8997H740.201V106.4L759.701 106.4V4.39967L740.201 4.3997V41.8997H698.701V4.39973L679.201 4.39976Z" fill="black"/>
<path d="M454.717 4.40071H472.595H485.472H576.701C576.701 11.8203 576.701 15.9802 576.701 23.3998H546.201V106.401H534.451H522.701V23.3998H467.491L454.717 4.40071Z" fill="black"/>
<path d="M1 4.39982H13.8773H26.7546H117.983V23.3989H87.4833V106.4H75.7333H63.9833V23.3989H13.7731L1 4.39982Z" fill="black"/>
<path d="M215.201 106.4V4.40049H289.701V23.3998H235.701V43.3985H285.201V60.8985H235.701V86.8985H291.701V106.4H215.201Z" fill="black"/>
<path d="M768.201 106.4V4.3997H842.701V23.3973H788.701V43.3977H838.201V60.8977H788.701V86.8977H844.701V106.4H768.201Z" fill="black"/>
<path d="M648.201 71.8985H670.701C670.701 85.3985 657.601 110.898 627.201 110.898C589.201 110.898 579.701 77.3985 579.201 67.8985C578.201 59.3985 578.201 49.8985 579.201 43.8985C580.117 32.8985 586.201 7.39845 611.201 2.89845C631.201 -0.701553 642.201 1.39841 648.701 4.39845C655.201 7.39846 669.501 19.0985 670.701 37.8985H647.701C646.534 31.5652 640.701 19.0374 625.201 19.8985C607.701 20.8707 602.701 36.3985 602.201 42.8985C601.801 48.0985 601.201 56.3985 602.201 66.8985C602.77 72.8715 608.201 85.7681 616.201 88.8985C623.201 91.6376 635.201 90.8985 640.201 86.8985C642.701 84.8985 647.801 79.0985 648.201 71.8985Z" fill="black"/>
<path d="M967.684 4.39849H954.807H941.93H850.701V23.3975H881.201V106.398H892.951H904.701V23.3975H954.911L967.684 4.39849Z" stroke="black"/>
<path fill-rule="evenodd" clip-rule="evenodd" d="M418.918 4.40071V106.401H439.255V89.8864H479.535L490.58 106.401H514.79C492.84 73.6959 448.164 7.50928 445.065 4.40071H418.918ZM439.255 73.3721V29.6578L468.491 73.3721H439.255Z" stroke="black"/>
<path d="M126.201 4.40071V106.401L145.701 106.401V59.9006H187.201V106.401L206.701 106.401V4.40061L187.201 4.40064V41.9006H145.701V4.40067L126.201 4.40071Z" stroke="black"/>
<path d="M330.201 4.40058V106.401L349.701 106.401V59.9005H391.201V106.4L410.701 106.4V4.40049L391.201 4.40052V41.9005H349.701V4.40055L330.201 4.40058Z" stroke="black"/>
<path d="M679.201 4.39976V106.4L698.701 106.4V59.8997H740.201V106.4L759.701 106.4V4.39967L740.201 4.3997V41.8997H698.701V4.39973L679.201 4.39976Z" stroke="black"/>
<path d="M454.717 4.40071H472.595H485.472H576.701C576.701 11.8203 576.701 15.9802 576.701 23.3998H546.201V106.401H534.451H522.701V23.3998H467.491L454.717 4.40071Z" stroke="black"/>
<path d="M1 4.39982H13.8773H26.7546H117.983V23.3989H87.4833V106.4H75.7333H63.9833V23.3989H13.7731L1 4.39982Z" stroke="black"/>
<path d="M215.201 106.4V4.40049H289.701V23.3998H235.701V43.3985H285.201V60.8985H235.701V86.8985H291.701V106.4H215.201Z" stroke="black"/>
<path d="M768.201 106.4V4.3997H842.701V23.3973H788.701V43.3977H838.201V60.8977H788.701V86.8977H844.701V106.4H768.201Z" stroke="black"/>
<path d="M648.201 71.8985H670.701C670.701 85.3985 657.601 110.898 627.201 110.898C589.201 110.898 579.701 77.3985 579.201 67.8985C578.201 59.3985 578.201 49.8985 579.201 43.8985C580.117 32.8985 586.201 7.39845 611.201 2.89845C631.201 -0.701553 642.201 1.39841 648.701 4.39845C655.201 7.39846 669.501 19.0985 670.701 37.8985H647.701C646.534 31.5652 640.701 19.0374 625.201 19.8985C607.701 20.8707 602.701 36.3985 602.201 42.8985C601.801 48.0985 601.201 56.3985 602.201 66.8985C602.77 72.8715 608.201 85.7681 616.201 88.8985C623.201 91.6376 635.201 90.8985 640.201 86.8985C642.701 84.8985 647.801 79.0985 648.201 71.8985Z" stroke="black"/>
</svg>
