<svg width="6070" height="4056" viewBox="0 0 6070 4056" fill="none" xmlns="http://www.w3.org/2000/svg">
<path d="M1688.94 2018.76C962.266 2016.61 352.485 2513.47 155.557 2760.33C51.3818 2455.91 -81.2133 1702.42 221.809 1123.9C577.237 445.322 1018.36 137.487 1625.96 37.9632C1698.68 26.0519 1769.01 65.7268 1807.49 128.571C1911.53 298.494 2098.9 538.172 2309.88 663.528C2463.88 755.025 2588.36 806.22 2660.4 830.781C2699.88 844.242 2741.15 829.845 2768.13 798.032L3019.75 501.347C3027.73 491.928 3042.27 491.928 3050.25 501.347L3301.87 798.032C3328.85 829.845 3370.12 844.242 3409.6 830.781C3481.64 806.22 3606.12 755.026 3760.11 663.528C3971.1 538.172 4158.47 298.494 4262.51 128.571C4300.99 65.7268 4371.32 26.0519 4444.04 37.9632C5051.64 137.487 5492.76 445.322 5848.19 1123.9C6151.21 1702.42 6018.62 2455.91 5914.44 2760.33C5717.51 2513.47 5107.73 2016.61 4381.05 2018.76C3984.95 2019.93 3635.79 2117.56 3469.23 2234.82C3468.85 2235.08 3468.36 2235.05 3468.02 2234.76L3204.57 2010.63C3204.08 2010.21 3204.1 2009.44 3204.63 2009.06C3428.87 1847.7 3731 1732.19 4013.7 1691.77C4209.1 1667.39 4634.09 1647.98 5030.32 1771.4C5384.43 1881.71 5548.46 2008.31 5706.55 2106.36C5706.55 1874.43 5690.29 1569.22 5514.19 1197.06C5286.08 715.01 4815.38 463.034 4537.32 404.548C4502.09 397.137 4467.2 414.332 4447.13 444.228C4139.77 902.15 3678.99 1183.2 3229.35 1223.96C3204.89 1226.18 3181.4 1214.53 3167.51 1194.28L3080.36 1067.15C3058.52 1035.27 3011.48 1035.27 2989.64 1067.15L2902.48 1194.28C2888.6 1214.53 2865.11 1226.18 2840.65 1223.96C2391.01 1183.2 1930.23 902.15 1622.87 444.228C1602.8 414.332 1567.91 397.137 1532.68 404.548C1254.62 463.034 783.918 715.01 555.81 1197.06C379.705 1569.22 363.451 1874.43 363.451 2106.36C521.542 2008.31 685.572 1881.71 1039.68 1771.4C1435.91 1647.98 1860.9 1667.39 2056.3 1691.77C2339.43 1732.25 3050.22 1980.52 3527.09 2572.7C3836.64 2957.1 3970.37 3357.29 4026.68 3574.19C4042.84 3636.45 4017.84 3701.95 3964.07 3737.25C3715.76 3900.29 3419.85 4021 3035 4021C2650.15 4021 2354.24 3900.29 2105.93 3737.25C2052.16 3701.95 2027.06 3636.45 2042.37 3573.98C2100.52 3336.66 2248.84 2859.58 2638.64 2454.43C2639 2454.05 2639.59 2454.01 2639.99 2454.34L2879.26 2645.99C2879.72 2646.35 2879.76 2647.04 2879.36 2647.46C2711.81 2826.18 2659.87 2940.35 2542.91 3172.92C2503.84 3250.6 2475.44 3311.49 2439.08 3409.71C2418.98 3463.99 2441.31 3525.01 2491.65 3553.57C2631.85 3633.12 2720.89 3662 3035 3677.09C3349.11 3662 3438.15 3633.12 3578.35 3553.57C3628.69 3525.01 3651.02 3463.99 3630.92 3409.71C3594.56 3311.49 3566.16 3250.6 3527.09 3172.92C3348.2 2817.21 3011.24 2506.5 2909.81 2424.38C2808.37 2342.26 2469.89 2021.07 1688.94 2018.76Z" fill="black" stroke="black" stroke-width="70"/>
</svg>
