<svg width="279" height="54" viewBox="0 0 279 54" fill="none" xmlns="http://www.w3.org/2000/svg">
<path d="M247 26L264.5 1H277.75L259 25L278 53.5H265L247 26Z" fill="black"/>
<path d="M114.5 1L150 53.5H164.5V1H153V38.5L127.797 1H114.5Z" fill="black"/>
<path fill-rule="evenodd" clip-rule="evenodd" d="M93.5 1V53.5H104V45H124.797L130.5 53.5H143C131.667 36.6667 108.6 2.6 107 1H93.5ZM104 36.5V14L119.095 36.5H104Z" fill="black"/>
<path d="M1 53.5L36 1H50.5V35.5L73.5 1H87.5V53.5H76.5V15L51.5 53.5H39V14L13.5 53.5H1Z" fill="black"/>
<path fill-rule="evenodd" clip-rule="evenodd" d="M170.5 53.5V1H197C203.5 1 207 3.5 209 6C211 8.5 212.5 11 212.5 15C212.5 18 212 22 209.5 24.5C207.067 26.9331 204.5 28 203.5 28.5C206.167 29 211.5 31.3 211.5 36.5V53.5H200.5V36.5C200.5 33.3 197.5 32.5 196 32.5H181.5V53.5H170.5ZM181.5 10.5V24.5H198C199.833 23.8333 202.5 21.52 202.5 17.5C202.5 12.5 200.5 10.5 198 10.5H181.5Z" fill="black"/>
<path d="M218 1V53.5H229V1H218Z" fill="black"/>
<path d="M235.5 1V53.5H246V1H235.5Z" fill="black"/>
<path d="M247 26L264.5 1H277.75L259 25L278 53.5H265L247 26Z" stroke="black"/>
<path d="M114.5 1L150 53.5H164.5V1H153V38.5L127.797 1H114.5Z" stroke="black"/>
<path fill-rule="evenodd" clip-rule="evenodd" d="M93.5 1V53.5H104V45H124.797L130.5 53.5H143C131.667 36.6667 108.6 2.6 107 1H93.5ZM104 36.5V14L119.095 36.5H104Z" stroke="black"/>
<path d="M1 53.5L36 1H50.5V35.5L73.5 1H87.5V53.5H76.5V15L51.5 53.5H39V14L13.5 53.5H1Z" stroke="black"/>
<path fill-rule="evenodd" clip-rule="evenodd" d="M170.5 53.5V1H197C203.5 1 207 3.5 209 6C211 8.5 212.5 11 212.5 15C212.5 18 212 22 209.5 24.5C207.067 26.9331 204.5 28 203.5 28.5C206.167 29 211.5 31.3 211.5 36.5V53.5H200.5V36.5C200.5 33.3 197.5 32.5 196 32.5H181.5V53.5H170.5ZM181.5 10.5V24.5H198C199.833 23.8333 202.5 21.52 202.5 17.5C202.5 12.5 200.5 10.5 198 10.5H181.5Z" stroke="black"/>
<path d="M218 1V53.5H229V1H218Z" stroke="black"/>
<path d="M235.5 1V53.5H246V1H235.5Z" stroke="black"/>
</svg>
